<?xml version="1.0" standalone="no"?>
<!DOCTYPE svg PUBLIC "-//W3C//DTD SVG 20010904//EN"
 "http://www.w3.org/TR/2001/REC-SVG-20010904/DTD/svg10.dtd">
<svg version="1.0" xmlns="http://www.w3.org/2000/svg"
 width="1466.000000pt" height="668.000000pt" viewBox="0 0 1466.000000 668.000000"
 preserveAspectRatio="xMidYMid meet">

<g transform="translate(0.000000,668.000000) scale(0.100000,-0.100000)"
fill="#000000" stroke="none">
<path d="M6625 5404 c-139 -23 -315 -103 -421 -192 -148 -124 -217 -274 -234
-509 -11 -148 -14 -1201 -4 -1227 5 -14 43 -16 325 -16 l318 0 3 648 c3 630 4
648 24 702 30 79 62 139 97 184 43 54 136 120 205 146 63 24 196 50 255 50 20
0 37 5 37 10 0 16 -118 98 -194 135 -39 19 -98 41 -131 50 -61 16 -225 27
-280 19z"/>
<path d="M8355 5401 c-91 -15 -168 -42 -270 -94 -176 -91 -297 -234 -353 -418
-34 -109 -44 -246 -40 -505 5 -277 11 -303 89 -388 125 -137 342 -137 474 1
77 80 100 210 90 513 -6 166 -4 193 14 262 24 93 51 147 105 214 103 127 232
189 421 203 l90 6 -59 46 c-72 58 -200 122 -285 144 -76 19 -207 27 -276 16z"/>
<path d="M7100 4969 c-67 -10 -114 -33 -165 -80 -58 -53 -91 -117 -105 -200
-13 -81 -13 -427 0 -539 24 -213 97 -367 230 -486 244 -219 583 -268 858 -124
75 39 192 119 192 131 0 3 -42 9 -92 12 -266 16 -447 152 -514 387 -12 41 -18
130 -24 345 -8 316 -13 346 -76 436 -61 88 -187 137 -304 118z"/>
<path d="M8766 4955 c-78 -30 -134 -83 -174 -165 l-27 -55 -3 -605 c-2 -333 0
-620 3 -637 l6 -33 315 0 315 0 -3 643 -3 642 -24 49 c-30 60 -85 118 -143
147 -55 29 -202 37 -262 14z"/>
<path d="M5890 3051 c-199 -54 -320 -220 -320 -442 0 -124 38 -226 117 -310
97 -104 251 -151 418 -128 77 10 195 62 233 101 l22 24 -54 53 -54 54 -31 -22
c-111 -79 -260 -86 -371 -16 -74 47 -121 142 -121 245 -1 76 15 128 54 186 44
66 108 104 199 117 85 12 157 -4 223 -49 l38 -26 50 51 c58 57 57 60 -24 112
-106 67 -246 86 -379 50z"/>
<path d="M8855 3060 c-159 -19 -288 -116 -345 -259 -66 -168 -34 -366 79 -493
86 -97 269 -154 409 -128 67 12 188 68 220 103 l22 24 -20 18 c-20 18 -21 17
-65 -14 -88 -63 -182 -87 -288 -72 -205 29 -327 171 -327 381 0 159 74 286
200 348 65 31 184 47 251 33 60 -13 140 -49 182 -83 l27 -22 21 20 21 21 -39
30 c-98 77 -214 108 -348 93z"/>
<path d="M5325 3048 c-51 -27 -62 -98 -22 -136 53 -50 147 -15 147 55 0 45 -9
62 -41 78 -33 18 -57 18 -84 3z"/>
<path d="M2720 2615 l0 -435 80 0 80 0 2 317 3 318 135 -185 c85 -115 143
-186 155 -188 15 -2 53 41 160 185 l140 187 3 -317 2 -317 80 0 80 0 0 435 0
435 -94 0 -95 0 -133 -185 c-73 -101 -135 -184 -138 -184 -3 0 -65 83 -138
185 l-134 184 -94 0 -94 0 0 -435z"/>
<path d="M5010 2885 c0 -146 -7 -193 -23 -152 -9 23 -106 68 -160 74 -74 8
-158 -12 -214 -51 -36 -25 -57 -50 -83 -101 -33 -64 -35 -74 -35 -164 0 -85 3
-103 28 -153 54 -110 142 -162 277 -163 76 0 90 3 133 28 27 16 51 35 54 43
10 26 22 15 25 -23 l3 -38 68 -3 67 -3 0 436 0 435 -70 0 -70 0 0 -165z m-110
-235 c70 -36 104 -112 88 -198 -15 -86 -84 -142 -174 -142 -100 0 -174 79
-174 186 1 133 139 216 260 154z"/>
<path d="M10890 2890 l0 -90 -65 0 c-63 0 -65 -1 -65 -25 0 -24 2 -25 64 -25
l64 0 4 -227 c3 -200 5 -233 22 -266 23 -47 52 -67 113 -78 35 -7 61 -5 100 6
56 17 60 21 40 49 -10 14 -17 15 -40 7 -36 -14 -90 -14 -120 0 -49 22 -52 38
-55 282 l-3 227 105 0 106 0 0 25 0 25 -105 0 -105 0 0 90 0 90 -30 0 -30 0 0
-90z"/>
<path d="M3955 2790 c-74 -29 -120 -72 -157 -148 -30 -60 -33 -75 -32 -152 1
-193 113 -308 308 -318 97 -5 167 12 240 58 l49 31 -47 48 -48 49 -46 -26
c-94 -53 -240 -28 -285 48 -37 61 -41 60 224 60 l242 0 -7 81 c-12 144 -80
242 -190 274 -70 21 -189 18 -251 -5z m225 -125 c35 -18 70 -61 70 -86 0 -18
-11 -19 -165 -19 -91 0 -165 4 -165 9 0 20 48 75 80 92 43 23 139 25 180 4z"/>
<path d="M7390 2799 c-14 -6 -40 -24 -57 -42 l-33 -31 0 25 c0 43 -12 50 -81
47 l-63 -3 -3 -205 c-2 -113 -1 -251 3 -307 l6 -103 69 0 69 0 0 168 c1 194 8
234 49 276 26 26 39 31 94 34 46 3 73 0 95 -12 l31 -16 31 57 c17 32 28 63 25
71 -15 40 -169 67 -235 41z"/>
<path d="M7865 2790 c-101 -40 -163 -115 -186 -225 -26 -129 23 -271 115 -333
128 -86 320 -82 447 9 l31 22 -47 47 -46 47 -52 -26 c-99 -49 -235 -28 -278
43 -41 67 -45 65 219 68 l237 3 -2 69 c-5 131 -53 218 -149 266 -68 34 -216
39 -289 10z m218 -124 c39 -16 63 -42 72 -78 l7 -28 -166 0 c-119 0 -166 3
-166 12 0 21 52 80 84 94 40 17 128 18 169 0z"/>
<path d="M9575 2797 c-119 -31 -200 -118 -225 -241 -48 -237 142 -422 383
-371 71 15 114 36 162 80 27 26 27 27 7 41 -18 13 -25 11 -72 -21 -57 -38 -99
-50 -180 -50 -120 1 -214 73 -238 183 l-10 42 281 0 280 0 -6 75 c-7 92 -43
164 -106 212 -68 53 -184 73 -276 50z m200 -71 c80 -37 125 -103 125 -181 l0
-35 -247 2 -248 3 3 28 c19 161 211 257 367 183z"/>
<path d="M10307 2793 c-26 -9 -66 -33 -87 -55 l-40 -38 0 50 c0 49 -1 50 -30
50 l-30 0 0 -310 0 -310 30 0 30 0 0 191 c0 221 7 255 65 315 87 91 266 83
330 -15 37 -55 44 -110 45 -309 l0 -183 28 3 27 3 0 210 c-1 198 -2 213 -24
263 -26 58 -72 104 -129 128 -56 24 -158 27 -215 7z"/>
<path d="M11511 2800 c-89 -19 -173 -88 -213 -175 -34 -75 -33 -200 3 -275 48
-99 118 -151 228 -169 103 -17 216 14 283 77 26 24 27 27 12 43 -16 17 -18 17
-60 -11 -23 -17 -71 -37 -105 -46 -156 -40 -289 38 -323 189 l-6 27 281 0 282
0 -6 70 c-7 86 -33 147 -85 197 -65 63 -189 94 -291 73z m189 -71 c24 -11 53
-28 64 -37 27 -24 66 -112 66 -149 l0 -33 -244 0 c-135 0 -247 4 -250 9 -3 5
1 33 10 62 19 63 92 142 146 158 60 17 159 12 208 -10z"/>
<path d="M5290 2490 l0 -310 75 0 75 0 0 310 0 310 -75 0 -75 0 0 -310z"/>
<path d="M6410 2607 c0 -218 9 -268 63 -339 40 -52 78 -75 146 -88 69 -13 138
2 201 45 27 18 51 30 54 27 3 -3 6 -20 6 -39 l0 -33 70 0 70 0 -2 308 -3 307
-72 3 -73 3 0 -178 c0 -166 -2 -182 -22 -223 -31 -59 -66 -82 -130 -88 -44 -3
-59 0 -88 20 -63 42 -70 69 -70 281 l0 187 -75 0 -75 0 0 -193z"/>
<path d="M12050 2490 l0 -310 29 0 30 0 3 218 c3 213 4 219 28 254 52 77 151
113 234 86 40 -13 44 -13 55 4 6 10 11 20 11 23 0 15 -76 35 -132 35 -75 0
-132 -24 -170 -68 -14 -17 -29 -28 -32 -25 -3 4 -6 26 -6 50 0 39 -2 43 -25
43 l-25 0 0 -310z"/>
</g>
</svg>
