<?xml version="1.0" standalone="no"?>
<!DOCTYPE svg PUBLIC "-//W3C//DTD SVG 20010904//EN"
 "http://www.w3.org/TR/2001/REC-SVG-20010904/DTD/svg10.dtd">
<svg version="1.0" xmlns="http://www.w3.org/2000/svg"
 width="1280.000000pt" height="500.000000pt" viewBox="0 0 1280.000000 500.000000"
 preserveAspectRatio="xMidYMid meet">

<g transform="translate(0.000000,500.000000) scale(0.100000,-0.100000)"
fill="#000000" stroke="none">
<path d="M2880 3801 c-47 -16 -125 -33 -175 -39 -110 -11 -168 -37 -245 -109
-32 -29 -63 -53 -69 -53 -7 0 -31 21 -54 46 -46 51 -130 104 -164 104 -39 0
-90 -57 -138 -153 -25 -51 -68 -119 -96 -152 -29 -33 -60 -79 -70 -102 -24
-57 -40 -150 -33 -190 10 -53 -8 -65 -82 -58 -44 5 -78 2 -118 -9 -97 -29
-108 -72 -56 -236 17 -52 35 -135 40 -185 12 -110 44 -180 112 -248 26 -26 48
-55 48 -64 0 -9 -27 -45 -60 -79 -95 -99 -108 -158 -47 -210 17 -14 69 -45
116 -69 47 -24 115 -67 151 -96 92 -74 137 -92 245 -97 50 -3 93 -9 96 -15 4
-5 5 -36 2 -67 -7 -72 11 -151 42 -184 33 -35 83 -34 204 5 53 17 133 35 179
39 105 11 172 42 251 114 68 62 69 62 120 4 48 -55 118 -98 161 -98 48 0 84
39 144 155 25 50 64 113 87 140 66 79 98 156 107 261 l7 89 100 5 c189 10 214
52 148 244 -13 39 -30 120 -38 180 -17 125 -38 171 -117 252 -59 60 -58 77 3
126 51 41 99 116 99 155 0 47 -32 77 -138 131 -54 28 -129 76 -167 106 -84 67
-161 96 -255 96 -38 0 -71 5 -78 12 -7 7 -12 42 -12 88 0 89 -11 135 -42 167
-30 32 -99 30 -208 -6z m179 -68 c14 -49 14 -169 1 -194 -6 -10 -45 -37 -88
-58 -101 -52 -185 -121 -248 -205 -116 -154 -153 -287 -130 -468 8 -64 7 -68
-12 -68 -31 0 -119 86 -157 154 -69 124 -93 304 -61 457 29 133 122 271 216
319 25 13 77 25 133 31 50 6 130 23 177 39 47 15 102 28 122 29 35 1 38 -2 47
-36z m-849 -59 c40 -27 100 -87 122 -122 l20 -33 -26 -82 c-96 -300 -7 -613
214 -752 47 -30 49 -39 15 -61 -21 -14 -42 -16 -113 -12 -73 4 -100 11 -165
41 -224 103 -377 320 -377 534 0 82 28 153 89 228 26 33 70 101 95 150 43 81
76 125 95 125 4 0 18 -7 31 -16z m1122 -214 c30 -11 80 -42 111 -68 32 -27
103 -73 157 -101 55 -29 104 -60 109 -69 15 -28 -11 -72 -78 -136 -70 -66 -76
-67 -186 -25 -81 31 -281 39 -376 15 -145 -37 -293 -135 -339 -227 -42 -81
-71 -71 -81 28 -9 84 3 146 46 238 101 218 305 362 517 364 44 1 86 -6 120
-19z m-1487 -435 c6 -1 29 -40 52 -86 130 -262 405 -423 645 -380 40 7 80 14
88 14 53 6 -28 -113 -117 -170 -30 -19 -87 -47 -127 -61 -62 -22 -87 -26 -206
-26 -108 -1 -146 3 -190 18 -88 30 -149 64 -201 113 -67 63 -98 129 -109 239
-5 49 -23 129 -40 178 -32 96 -37 140 -17 153 27 17 174 23 222 8z m1601 -28
c118 -42 197 -102 249 -191 19 -33 30 -73 40 -148 8 -57 28 -146 44 -198 17
-52 31 -98 31 -102 0 -5 -9 -17 -20 -28 -17 -17 -33 -20 -111 -20 -50 0 -98 4
-108 10 -10 5 -38 48 -61 95 -96 193 -294 341 -500 372 -51 8 -78 6 -187 -12
-57 -10 -66 11 -27 66 56 81 163 147 284 174 100 23 276 14 366 -18z m-396
-278 c158 -36 332 -181 408 -339 88 -186 78 -317 -35 -453 -22 -26 -62 -89
-88 -140 -26 -51 -55 -100 -63 -109 -29 -34 -61 -22 -134 50 -79 80 -81 87
-42 207 34 104 42 242 21 342 -32 146 -102 275 -184 336 -75 55 -103 78 -103
87 0 26 137 38 220 19z m-190 -126 c85 -56 148 -149 182 -268 30 -108 30 -279
0 -378 -40 -130 -123 -235 -222 -280 -24 -11 -81 -24 -126 -28 -45 -5 -122
-22 -172 -39 -107 -36 -147 -38 -162 -10 -6 12 -10 63 -8 122 l3 103 93 50
c272 147 426 423 371 663 -12 49 -8 82 8 82 5 0 20 -7 33 -17z m-100 -73 c18
-44 7 -181 -19 -251 -86 -227 -325 -409 -536 -409 -88 0 -154 24 -222 82 -32
27 -101 72 -153 100 -52 28 -103 58 -112 66 -34 29 -22 59 51 134 78 80 75 79
206 38 93 -30 297 -33 394 -6 136 37 249 117 317 223 18 29 40 53 48 53 7 0
19 -14 26 -30z"/>
<path d="M5700 3533 c-5 -141 3 -1700 8 -1705 5 -5 69 -7 143 -6 l134 3 0 855
0 855 -142 3 c-79 1 -143 -1 -143 -5z"/>
<path d="M4185 3428 c-3 -7 -4 -371 -3 -808 l3 -795 400 0 c436 0 461 3 583
63 218 107 294 384 160 587 -40 60 -117 120 -173 134 -45 11 -71 33 -60 50 3
6 37 29 75 51 82 48 132 104 161 179 56 147 21 310 -88 416 -50 49 -162 101
-255 120 -103 20 -796 23 -803 3z m759 -253 c49 -25 64 -39 84 -77 63 -122 26
-253 -88 -310 -54 -27 -60 -28 -247 -30 -146 -1 -195 1 -207 11 -14 11 -16 42
-16 208 0 121 4 202 11 215 10 19 18 20 207 16 195 -3 198 -4 256 -33z m-20
-652 c79 -22 147 -86 164 -155 31 -122 -11 -227 -112 -281 -38 -20 -57 -22
-259 -25 -159 -3 -222 0 -233 9 -19 15 -21 438 -2 457 20 20 367 16 442 -5z"/>
<path d="M6720 3092 c-216 -71 -359 -218 -421 -432 -108 -378 84 -744 441
-837 88 -23 263 -23 350 0 212 57 372 202 446 404 27 73 29 87 29 233 0 132
-3 165 -22 225 -59 186 -189 321 -381 393 -60 23 -84 26 -227 29 -134 2 -169
0 -215 -15z m354 -263 c73 -37 89 -50 128 -106 59 -86 82 -198 68 -325 -17
-147 -93 -260 -211 -313 -49 -22 -73 -26 -148 -26 -78 0 -97 4 -146 28 -74 35
-136 105 -166 185 -21 55 -24 80 -24 198 0 133 1 137 33 202 63 128 161 187
316 187 80 1 95 -2 150 -30z"/>
<path d="M8245 3099 c-86 -21 -204 -88 -274 -157 -155 -153 -221 -359 -188
-584 19 -128 45 -198 107 -291 59 -87 129 -146 235 -197 106 -50 169 -64 295
-64 128 -1 188 13 309 71 158 76 269 207 322 383 30 97 33 290 6 390 -48 179
-158 316 -318 394 -52 25 -114 50 -139 55 -55 13 -300 12 -355 0z m330 -268
c82 -38 146 -111 177 -199 19 -55 23 -87 22 -177 0 -128 -20 -193 -84 -274
-68 -85 -157 -124 -286 -123 -99 1 -155 25 -227 99 -130 133 -141 443 -21 586
70 84 143 115 269 116 79 1 97 -2 150 -28z"/>
<path d="M9920 3101 c-68 -24 -120 -52 -165 -93 -83 -74 -102 -69 -103 24 0
26 -3 52 -7 57 -7 12 -241 16 -269 5 -14 -6 -16 -71 -16 -634 0 -563 2 -628
16 -634 9 -3 72 -6 140 -6 93 0 126 3 130 13 2 7 6 188 7 403 3 421 4 428 60
511 49 73 123 107 242 111 77 3 100 0 142 -18 67 -28 125 -91 154 -165 23 -58
23 -71 29 -455 l5 -395 140 0 140 0 5 410 c5 391 6 412 26 455 52 110 130 161
262 168 129 7 216 -29 273 -113 51 -75 52 -84 58 -515 l6 -405 140 0 140 0 0
435 c0 481 -1 495 -63 613 -41 79 -107 143 -193 186 -84 42 -153 54 -283 49
-94 -4 -120 -9 -171 -32 -79 -36 -156 -95 -196 -151 -18 -25 -40 -45 -51 -45
-10 0 -33 21 -54 50 -43 60 -113 113 -196 147 -55 23 -79 27 -193 29 -71 2
-141 0 -155 -5z"/>
</g>
</svg>
